<?xml version="1.0" standalone="no"?><svg xmlns:xlink="http://www.w3.org/1999/xlink" xmlns="http://www.w3.org/2000/svg" viewBox="0 0 1200 480" preserveAspectRatio="xMaxYMax slice"><g transform="scale(1.0657193605683837)"><rect x="0" y="0" width="1126" height="450.4" fill="#ffffff"/><rect x="0" y="0" width="112.6" height="112.6" fill="#7189ed"/><polygon points="0,0 112.6,0 112.6,112.6" fill="#8ca0f0"/><rect x="112.6" y="0" width="112.6" height="112.6" fill="#ffffff"/><rect x="112.6" y="0" width="56.3" height="56.3" fill="#6c85ec"/><polygon points="112.6,0 168.89999999999998,0 112.6,56.3" fill="#e3e7fb"/><rect x="168.9" y="0" width="56.3" height="56.3" fill="#a8b6f4"/><polygon points="168.9,0 225.2,0 225.2,56.3" fill="#758ced"/><rect x="112.6" y="56.3" width="56.3" height="56.3" fill="#6e86ec"/><polygon points="168.89999999999998,56.3 168.89999999999998,112.6 112.6,112.6" fill="#2a4ee3"/><rect x="168.9" y="56.3" width="56.3" height="56.3" fill="#abb9f4"/><polygon points="168.9,56.3 225.2,56.3 225.2,112.6" fill="#d4dbf9"/><rect x="225.2" y="0" width="112.6" height="112.6" fill="#5c78ea"/><polygon points="337.79999999999995,0 337.79999999999995,112.6 225.2,112.6" fill="#899df0"/><rect x="337.79999999999995" y="0" width="112.6" height="112.6" fill="#ffffff"/><rect x="337.8" y="0" width="56.3" height="56.3" fill="#93a5f1"/><polygon points="337.8,0 394.1,0 337.8,56.3" fill="#7088ec"/><rect x="394.1" y="0" width="56.3" height="56.3" fill="#c1ccf7"/><polygon points="394.1,0 450.40000000000003,0 394.1,56.3" fill="#94a6f1"/><rect x="337.8" y="56.3" width="56.3" height="56.3" fill="#5773e9"/><polygon points="337.8,56.3 394.1,56.3 394.1,112.6" fill="#cbd4f8"/><rect x="394.1" y="56.3" width="56.3" height="56.3" fill="#3557e5"/><polygon points="394.1,56.3 450.40000000000003,112.6 394.1,112.6" fill="#4766e7"/><rect x="450.4" y="0" width="112.6" height="112.6" fill="#d2daf9"/><polygon points="450.4,0 563,0 450.4,112.6" fill="#4564e7"/><rect x="563" y="0" width="112.6" height="112.6" fill="#ffffff"/><rect x="563" y="0" width="56.3" height="56.3" fill="#f1f3fd"/><polygon points="563,0 619.3,0 563,56.3" fill="#5370e9"/><rect x="619.3" y="0" width="56.3" height="56.3" fill="#899df0"/><polygon points="619.3,0 675.5999999999999,56.3 619.3,56.3" fill="#2549e3"/><rect x="563" y="56.3" width="56.3" height="56.3" fill="#a3b2f3"/><polygon points="563,56.3 619.3,56.3 619.3,112.6" fill="#7088ec"/><rect x="619.3" y="56.3" width="56.3" height="56.3" fill="#c3cdf7"/><polygon points="619.3,56.3 675.5999999999999,112.6 619.3,112.6" fill="#5572e9"/><rect x="675.5999999999999" y="0" width="112.6" height="112.6" fill="#ffffff"/><rect x="675.6" y="0" width="56.3" height="56.3" fill="#e9ecfc"/><polygon points="675.6,0 731.9,0 731.9,56.3" fill="#254ae3"/><rect x="731.9" y="0" width="56.3" height="56.3" fill="#92a4f1"/><polygon points="788.1999999999999,0 788.1999999999999,56.3 731.9,56.3" fill="#4968e7"/><rect x="675.6" y="56.3" width="56.3" height="56.3" fill="#4463e7"/><polygon points="731.9,56.3 731.9,112.6 675.6,112.6" fill="#fefeff"/><rect x="731.9" y="56.3" width="56.3" height="56.3" fill="#506ee8"/><polygon points="788.1999999999999,56.3 788.1999999999999,112.6 731.9,112.6" fill="#a7b6f4"/><rect x="788.1999999999999" y="0" width="112.6" height="112.6" fill="#ffffff"/><rect x="788.2" y="0" width="56.3" height="56.3" fill="#294de3"/><polygon points="844.5,0 844.5,56.3 788.2,56.3" fill="#4262e6"/><rect x="844.5" y="0" width="56.3" height="56.3" fill="#6a83ec"/><polygon points="844.5,0 900.8,0 844.5,56.3" fill="#f7f8fe"/><rect x="788.2" y="56.3" width="56.3" height="56.3" fill="#7088ec"/><polygon points="844.5,56.3 844.5,112.6 788.2,112.6" fill="#4f6ce8"/><rect x="844.5" y="56.3" width="56.3" height="56.3" fill="#eaedfc"/><polygon points="844.5,56.3 900.8,56.3 844.5,112.6" fill="#8196ef"/><rect x="900.8" y="0" width="112.6" height="112.6" fill="#7c92ee"/><polygon points="900.8,0 1013.4,0 1013.4,112.6" fill="#7088ec"/><rect x="1013.4" y="0" width="112.6" height="112.6" fill="#ffffff"/><rect x="1013.4" y="0" width="56.3" height="56.3" fill="#2449e3"/><polygon points="1069.7,0 1069.7,56.3 1013.4,56.3" fill="#6982ec"/><rect x="1069.7" y="0" width="56.3" height="56.3" fill="#6d86ec"/><polygon points="1069.7,0 1126,0 1126,56.3" fill="#5672e9"/><rect x="1013.4" y="56.3" width="56.3" height="56.3" fill="#e3e8fb"/><polygon points="1013.4,56.3 1069.7,56.3 1069.7,112.6" fill="#e4e8fb"/><rect x="1069.7" y="56.3" width="56.3" height="56.3" fill="#9bacf2"/><polygon points="1069.7,56.3 1126,56.3 1126,112.6" fill="#4968e7"/><rect x="0" y="112.6" width="112.6" height="112.6" fill="#ffffff"/><rect x="0" y="112.6" width="56.3" height="56.3" fill="#e2e7fb"/><polygon points="0,112.6 56.3,112.6 56.3,168.89999999999998" fill="#3154e4"/><rect x="56.3" y="112.6" width="56.3" height="56.3" fill="#8498ef"/><polygon points="56.3,112.6 112.6,112.6 112.6,168.89999999999998" fill="#5370e9"/><rect x="0" y="168.9" width="56.3" height="56.3" fill="#a4b4f3"/><polygon points="0,168.9 56.3,225.2 0,225.2" fill="#b5c1f5"/><rect x="56.3" y="168.9" width="56.3" height="56.3" fill="#5471e9"/><polygon points="112.6,168.9 112.6,225.2 56.3,225.2" fill="#8499ef"/><rect x="112.6" y="112.6" width="112.6" height="112.6" fill="#f8f9fe"/><polygon points="112.6,112.6 225.2,112.6 225.2,225.2" fill="#889cf0"/><rect x="225.2" y="112.6" width="112.6" height="112.6" fill="#bec9f7"/><polygon points="337.79999999999995,112.6 337.79999999999995,225.2 225.2,225.2" fill="#f5f7fe"/><rect x="337.8" y="112.6" width="112.6" height="112.6" fill="#2c50e4"/><polygon points="337.8,112.6 450.4,225.2 337.8,225.2" fill="#c4cef7"/><rect x="450.4" y="112.6" width="112.6" height="112.6" fill="#c6cff8"/><polygon points="450.4,112.6 563,225.2 450.4,225.2" fill="#5a76ea"/><rect x="563" y="112.6" width="112.6" height="112.6" fill="#8da0f0"/><polygon points="675.6,112.6 675.6,225.2 563,225.2" fill="#758ded"/><rect x="675.6" y="112.6" width="112.6" height="112.6" fill="#e3e7fb"/><polygon points="788.2,112.6 788.2,225.2 675.6,225.2" fill="#aebcf4"/><rect x="788.2" y="112.6" width="112.6" height="112.6" fill="#ffffff"/><polygon points="900.8000000000001,112.6 900.8000000000001,225.2 788.2,225.2" fill="#6983ec"/><rect x="900.8" y="112.6" width="112.6" height="112.6" fill="#788fed"/><polygon points="900.8,112.6 1013.4,112.6 900.8,225.2" fill="#e5e9fc"/><rect x="1013.4" y="112.6" width="112.6" height="112.6" fill="#ffffff"/><rect x="1013.4" y="112.6" width="56.3" height="56.3" fill="#a1b1f3"/><polygon points="1069.7,112.6 1069.7,168.89999999999998 1013.4,168.89999999999998" fill="#4766e7"/><rect x="1069.7" y="112.6" width="56.3" height="56.3" fill="#c1ccf7"/><polygon points="1069.7,112.6 1126,112.6 1069.7,168.89999999999998" fill="#f1f3fd"/><rect x="1013.4" y="168.9" width="56.3" height="56.3" fill="#2146e2"/><polygon points="1013.4,168.9 1069.7,168.9 1069.7,225.2" fill="#7b91ee"/><rect x="1069.7" y="168.9" width="56.3" height="56.3" fill="#c4cef7"/><polygon points="1126,168.9 1126,225.2 1069.7,225.2" fill="#5572e9"/><rect x="0" y="225.2" width="112.6" height="112.6" fill="#7c92ee"/><polygon points="112.6,225.2 112.6,337.79999999999995 0,337.79999999999995" fill="#2a4ee3"/><rect x="112.6" y="225.2" width="112.6" height="112.6" fill="#6781eb"/><polygon points="112.6,225.2 225.2,337.79999999999995 112.6,337.79999999999995" fill="#fefeff"/><rect x="225.2" y="225.2" width="112.6" height="112.6" fill="#778eed"/><polygon points="337.79999999999995,225.2 337.79999999999995,337.79999999999995 225.2,337.79999999999995" fill="#dae0fa"/><rect x="337.8" y="225.2" width="112.6" height="112.6" fill="#2e52e4"/><polygon points="450.4,225.2 450.4,337.79999999999995 337.8,337.79999999999995" fill="#a3b3f3"/><rect x="450.4" y="225.2" width="112.6" height="112.6" fill="#7a90ee"/><polygon points="450.4,225.2 563,225.2 450.4,337.79999999999995" fill="#95a7f1"/><rect x="563" y="225.2" width="112.6" height="112.6" fill="#ffffff"/><rect x="563" y="225.2" width="56.3" height="56.3" fill="#758ced"/><polygon points="619.3,225.2 619.3,281.5 563,281.5" fill="#2a4ee3"/><rect x="619.3" y="225.2" width="56.3" height="56.3" fill="#3e5fe6"/><polygon points="619.3,225.2 675.5999999999999,225.2 675.5999999999999,281.5" fill="#94a6f1"/><rect x="563" y="281.5" width="56.3" height="56.3" fill="#a2b2f3"/><polygon points="563,281.5 619.3,281.5 619.3,337.8" fill="#516ee8"/><rect x="619.3" y="281.5" width="56.3" height="56.3" fill="#b9c5f6"/><polygon points="619.3,281.5 675.5999999999999,281.5 619.3,337.8" fill="#6a83ec"/><rect x="675.6" y="225.2" width="112.6" height="112.6" fill="#c9d2f8"/><polygon points="675.6,225.2 788.2,337.79999999999995 675.6,337.79999999999995" fill="#6b84ec"/><rect x="788.1999999999999" y="225.2" width="112.6" height="112.6" fill="#ffffff"/><rect x="788.2" y="225.2" width="56.3" height="56.3" fill="#a3b2f3"/><polygon points="788.2,225.2 844.5,225.2 788.2,281.5" fill="#3557e5"/><rect x="844.5" y="225.2" width="56.3" height="56.3" fill="#b3c0f5"/><polygon points="844.5,225.2 900.8,281.5 844.5,281.5" fill="#3e5fe6"/><rect x="788.2" y="281.5" width="56.3" height="56.3" fill="#b4c1f5"/><polygon points="788.2,281.5 844.5,281.5 844.5,337.8" fill="#edf0fd"/><rect x="844.5" y="281.5" width="56.3" height="56.3" fill="#e7ebfc"/><polygon points="900.8,281.5 900.8,337.8 844.5,337.8" fill="#5e79ea"/><rect x="900.8" y="225.2" width="112.6" height="112.6" fill="#ffffff"/><rect x="900.8" y="225.2" width="56.3" height="56.3" fill="#95a7f1"/><polygon points="900.8,225.2 957.0999999999999,225.2 957.0999999999999,281.5" fill="#c3cdf7"/><rect x="957.1" y="225.2" width="56.3" height="56.3" fill="#1a41e1"/><polygon points="957.1,225.2 1013.4,225.2 957.1,281.5" fill="#5d78ea"/><rect x="900.8" y="281.5" width="56.3" height="56.3" fill="#5d78ea"/><polygon points="900.8,281.5 957.0999999999999,337.8 900.8,337.8" fill="#9eaff2"/><rect x="957.1" y="281.5" width="56.3" height="56.3" fill="#1f44e2"/><polygon points="1013.4,281.5 1013.4,337.8 957.1,337.8" fill="#4c6be8"/><rect x="1013.4" y="225.2" width="112.6" height="112.6" fill="#ffffff"/><rect x="1013.4" y="225.2" width="56.3" height="56.3" fill="#7990ee"/><polygon points="1069.7,225.2 1069.7,281.5 1013.4,281.5" fill="#526fe8"/><rect x="1069.7" y="225.2" width="56.3" height="56.3" fill="#e1e6fb"/><polygon points="1069.7,225.2 1126,225.2 1126,281.5" fill="#1a40e1"/><rect x="1013.4" y="281.5" width="56.3" height="56.3" fill="#8fa2f1"/><polygon points="1013.4,281.5 1069.7,337.8 1013.4,337.8" fill="#8ea1f0"/><rect x="1069.7" y="281.5" width="56.3" height="56.3" fill="#c7d0f8"/><polygon points="1069.7,281.5 1126,337.8 1069.7,337.8" fill="#748bed"/><rect x="0" y="337.8" width="112.6" height="112.6" fill="#bdc8f6"/><polygon points="0,337.8 112.6,450.4 0,450.4" fill="#2146e2"/><rect x="112.6" y="337.8" width="112.6" height="112.6" fill="#a9b8f4"/><polygon points="112.6,337.8 225.2,450.4 112.6,450.4" fill="#294de3"/><rect x="225.2" y="337.8" width="112.6" height="112.6" fill="#7f95ee"/><polygon points="337.79999999999995,337.8 337.79999999999995,450.4 225.2,450.4" fill="#3759e5"/><rect x="337.8" y="337.8" width="112.6" height="112.6" fill="#dbe1fa"/><polygon points="337.8,337.8 450.4,450.4 337.8,450.4" fill="#ebeffc"/><rect x="450.4" y="337.8" width="112.6" height="112.6" fill="#889cf0"/><polygon points="450.4,337.8 563,337.8 450.4,450.4" fill="#d2daf9"/><rect x="563" y="337.8" width="112.6" height="112.6" fill="#bfcaf7"/><polygon points="563,337.8 675.6,337.8 563,450.4" fill="#758ded"/><rect x="675.6" y="337.8" width="112.6" height="112.6" fill="#c4cef7"/><polygon points="675.6,337.8 788.2,337.8 675.6,450.4" fill="#4b69e8"/><rect x="788.2" y="337.8" width="112.6" height="112.6" fill="#cdd5f8"/><polygon points="788.2,337.8 900.8000000000001,337.8 788.2,450.4" fill="#f1f4fd"/><rect x="900.8" y="337.79999999999995" width="112.6" height="112.6" fill="#ffffff"/><rect x="900.8" y="337.8" width="56.3" height="56.3" fill="#607bea"/><polygon points="900.8,337.8 957.0999999999999,337.8 957.0999999999999,394.1" fill="#8c9ff0"/><rect x="957.1" y="337.8" width="56.3" height="56.3" fill="#5e79ea"/><polygon points="1013.4,337.8 1013.4,394.1 957.1,394.1" fill="#4564e7"/><rect x="900.8" y="394.1" width="56.3" height="56.3" fill="#fefeff"/><polygon points="900.8,394.1 957.0999999999999,394.1 900.8,450.40000000000003" fill="#b8c4f6"/><rect x="957.1" y="394.1" width="56.3" height="56.3" fill="#2449e3"/><polygon points="957.1,394.1 1013.4,450.40000000000003 957.1,450.40000000000003" fill="#5f7aea"/><rect x="1013.4" y="337.8" width="112.6" height="112.6" fill="#2147e2"/><polygon points="1013.4,337.8 1126,337.8 1126,450.4" fill="#3557e5"/></g></svg>